<?xml version="1.0" encoding="UTF-8" standalone="no"?>
<!DOCTYPE svg PUBLIC "-//W3C//DTD SVG 1.1//EN" "http://www.w3.org/Graphics/SVG/1.1/DTD/svg11.dtd">
<svg width="100%" height="100%" viewBox="0 0 88 68" version="1.1" xmlns="http://www.w3.org/2000/svg" xmlns:xlink="http://www.w3.org/1999/xlink" xml:space="preserve" xmlns:serif="http://www.serif.com/" style="fill-rule:evenodd;clip-rule:evenodd;stroke-linejoin:round;stroke-miterlimit:2;">
    <g id="Artboard1" transform="matrix(1.74778,0,0,1.06424,-7.74142,-10.794)">
        <rect x="4.429" y="10.142" width="50.076" height="63.289" style="fill:none;"/>
        <g transform="matrix(0.572155,0,0,0.939641,0.906652,-4.18366)">
            <g>
                <path d="M70.18,43.98L29.82,43.98C26.52,43.98 23.82,46.69 23.82,49.98L23.82,73.92C23.82,77.22 26.52,79.92 29.82,79.92L70.18,79.92C73.481,79.92 76.18,77.22 76.18,73.92L76.18,49.98C76.18,46.69 73.48,43.98 70.18,43.98ZM36.44,66.99C33.66,66.99 31.4,64.74 31.4,61.95C31.4,59.17 33.66,56.92 36.44,56.92C39.22,56.92 41.48,59.17 41.48,61.95C41.48,64.74 39.22,66.99 36.44,66.99ZM63.56,66.99C60.781,66.99 58.531,64.74 58.531,61.95C58.531,59.17 60.781,56.92 63.56,56.92C66.34,56.92 68.6,59.17 68.6,61.95C68.6,64.74 66.34,66.99 63.56,66.99Z" style="fill-rule:nonzero;"/>
                <path d="M55.49,22.733C55.49,24.793 54.36,26.583 52.679,27.523L52.679,41.153L47.32,41.153L47.32,27.523C45.639,26.583 44.509,24.793 44.509,22.733C44.509,19.703 46.969,17.243 49.999,17.243C53.029,17.243 55.49,19.703 55.49,22.733Z" style="fill-rule:nonzero;"/>
                <path d="M20.82,51.145L20.82,72.765L15.28,72.765C11.98,72.765 9.28,70.066 9.28,66.765L9.28,57.145C9.28,53.846 11.98,51.145 15.28,51.145L20.82,51.145Z" style="fill-rule:nonzero;"/>
                <path d="M20.82,51.145L20.82,72.765L15.28,72.765C11.98,72.765 9.28,70.066 9.28,66.765L9.28,57.145C9.28,53.846 11.98,51.145 15.28,51.145L20.82,51.145Z" style="fill-rule:nonzero;"/>
                <path d="M90.72,57.145L90.72,66.765C90.72,70.066 88.02,72.765 84.72,72.765L79.18,72.765L79.18,51.145L84.72,51.145C88.02,51.145 90.72,53.846 90.72,57.145Z" style="fill-rule:nonzero;"/>
                <path d="M90.72,57.145L90.72,66.765C90.72,70.066 88.02,72.765 84.72,72.765L79.18,72.765L79.18,51.145L84.72,51.145C88.02,51.145 90.72,53.846 90.72,57.145Z" style="fill-rule:nonzero;"/>
            </g>
        </g>
    </g>
</svg>
